<?xml version="1.0" encoding="UTF-8"?>
<svg version="1.1" xmlns="http://www.w3.org/2000/svg" width="1024" height="1024">
<path d="M0 0 C337.92 0 675.84 0 1024 0 C1024 337.92 1024 675.84 1024 1024 C686.08 1024 348.16 1024 0 1024 C0 686.08 0 348.16 0 0 Z " fill="#16181E" transform="translate(0,0)"/>
<path d="M0 0 C32.01 0 64.02 0 97 0 C97 12.87 97 25.74 97 39 C176.53 39 256.06 39 338 39 C338 26.13 338 13.26 338 0 C370.34 0 402.68 0 436 0 C436 12.87 436 25.74 436 39 C447.55 39 459.1 39 471 39 C471 65.4 471 91.8 471 119 C459.45 119 447.9 119 436 119 C436 131.54 436 144.08 436 157 C424.78 157 413.56 157 402 157 C402 211.45 402 265.9 402 322 C424.11 322 446.22 322 469 322 C471.8713241 419.62501927 470 517.33276451 470 615 C292.79 615 115.58 615 -67 615 C-67 518.31 -67 421.62 -67 322 C-45.22 322 -23.44 322 -1 322 C-1 255.01 -1 188.02 -1 119 C-12.55 119 -24.1 119 -36 119 C-36 92.6 -36 66.2 -36 39 C-24.12 39 -12.24 39 0 39 C0 26.13 0 13.26 0 0 Z " fill="#CE1523" transform="translate(294,99)"/>
<path d="M0 0 C32.01 0 64.02 0 97 0 C97 12.87 97 25.74 97 39 C176.53 39 256.06 39 338 39 C338 26.13 338 13.26 338 0 C370.34 0 402.68 0 436 0 C436 12.87 436 25.74 436 39 C447.55 39 459.1 39 471 39 C471 65.4 471 91.8 471 119 C459.45 119 447.9 119 436 119 C436 131.54 436 144.08 436 157 C424.78 157 413.56 157 402 157 C402 211.12 402 265.24 402 321 C330 322 330 322 296 322 C296 309.13 296 296.26 296 283 C272.57 283 249.14 283 225 283 C225 269.14 225 255.28 225 241 C248.43 241 271.86 241 296 241 C296 227.47 296 213.94 296 200 C256.4 200 216.8 200 176 200 C176 185.48 176 170.96 176 156 C162.14 156 148.28 156 134 156 C134 170.52 134 185.04 134 200 C147.44814005 199.96039484 147.44814005 199.96039484 160.89624023 199.90991211 C162.57535743 199.906993 164.25447533 199.90444443 165.93359375 199.90234375 C166.81374146 199.89722778 167.69388916 199.89211182 168.60070801 199.88684082 C170.73413879 199.88653104 172.86748314 199.93755933 175 200 C176 201 176 201 176.12304783 203.01274967 C176.12212604 203.90412349 176.12120424 204.7954973 176.12025452 205.71388245 C176.12232076 207.23991891 176.12232076 207.23991891 176.12442875 208.7967844 C176.12083064 209.92675815 176.11723253 211.05673189 176.11352539 212.22094727 C176.11364593 213.42044227 176.11376646 214.61993727 176.11389065 215.8557806 C176.11314105 219.759341 176.10551066 223.66285433 176.09765625 227.56640625 C176.09618698 229.96805803 176.09516618 232.36971014 176.09460449 234.7713623 C176.0893499 243.7017464 176.07538885 252.63212366 176.0625 261.5625 C176.041875 281.506875 176.02125 301.45125 176 322 C117.92 322 59.84 322 0 322 C0 255.01 0 188.02 0 119 C-11.88 119 -23.76 119 -36 119 C-36 92.6 -36 66.2 -36 39 C-24.12 39 -12.24 39 0 39 C0 26.13 0 13.26 0 0 Z " fill="#FCBB0B" transform="translate(294,99)"/>
<path d="M0 0 C0.33 0 0.66 0 1 0 C1.33 66.66 1.66 133.32 2 202 C56.78 202 111.56 202 168 202 C168 224.77 168 247.54 168 271 C213.54 271 259.08 271 306 271 C306 259.12 306 247.24 306 235 C306.33 234.67 306.66 234.34 307 234 C327.46 234 347.92 234 369 234 C369 307.92 369 381.84 369 458 C280.23 458 191.46 458 100 458 C99.67 420.38 99.34 382.76 99 344 C44.55 344 -9.9 344 -66 344 C-66 297.47 -66 250.94 -66 203 C-44.22 203 -22.44 203 0 203 C0 136.01 0 69.02 0 0 Z " fill="#CB1522" transform="translate(293,218)"/>
<path d="M0 0 C32.01 0 64.02 0 97 0 C97 12.87 97 25.74 97 39 C176.53 39 256.06 39 338 39 C338 26.13 338 13.26 338 0 C370.34 0 402.68 0 436 0 C436 12.87 436 25.74 436 39 C447.55 39 459.1 39 471 39 C471 65.4 471 91.8 471 119 C459.45 119 447.9 119 436 119 C436 131.54 436 144.08 436 157 C435.67 157 435.34 157 435 157 C435 144.46 435 131.92 435 119 C424.11 119 413.22 119 402 119 C402 105.8 402 92.6 402 79 C380.55 79 359.1 79 337 79 C337 66.13 337 53.26 337 40 C258.13 40 179.26 40 98 40 C98 132.73 98 225.46 98 321 C49.49 321.495 49.49 321.495 0 322 C0 255.01 0 188.02 0 119 C-11.88 119 -23.76 119 -36 119 C-36 92.6 -36 66.2 -36 39 C-24.12 39 -12.24 39 0 39 C0 26.13 0 13.26 0 0 Z " fill="#E26F04" transform="translate(294,99)"/>
<path d="M0 0 C54.45 0 108.9 0 165 0 C165.0309375 30.133125 165.0309375 30.133125 165.0625 60.875 C165.071604 67.1641748 165.08070801 73.45334961 165.09008789 79.93310547 C165.09460449 87.75024414 165.09460449 87.75024414 165.09544373 91.43630981 C165.09695627 93.95266905 165.10042386 96.46902767 165.10557556 98.98538208 C165.11307253 102.84817722 165.11390022 106.71092898 165.11352539 110.57373047 C165.1171235 111.65122496 165.12072161 112.72871944 165.12442875 113.83886528 C165.1086713 126.25475 164.47833658 138.56324892 164 151 C109.88 151 55.76 151 0 151 C0 101.17 0 51.34 0 0 Z " fill="#FCBA0A" transform="translate(227,562)"/>
<path d="M0 0 C13.86 0 27.72 0 42 0 C42 14.52 42 29.04 42 44 C81.6 44 121.2 44 162 44 C162 57.53 162 71.06 162 85 C138.57 85 115.14 85 91 85 C91 98.86 91 112.72 91 127 C114.43 127 137.86 127 162 127 C162 139.87 162 152.74 162 166 C164.97 166 167.94 166 171 166 C171 176.23 171 186.46 171 197 C125.46 197 79.92 197 33 197 C33 186.77 33 176.54 33 166 C35.97 166 38.94 166 42 166 C41.67 126.07 41.34 86.14 41 45 C20.705 44.505 20.705 44.505 0 44 C0 29.48 0 14.96 0 0 Z " fill="#CE5F03" transform="translate(428,255)"/>
<path d="M0 0 C33.33 0 66.66 0 101 0 C101 49.83 101 99.66 101 151 C68 151 35 151 1 151 C0.37236447 130.28802763 -0.14292557 109.67095518 -0.09765625 88.96484375 C-0.09578225 86.36641976 -0.09436302 83.7679954 -0.09336853 81.16957092 C-0.08999915 75.13577897 -0.08219943 69.10200921 -0.07201904 63.06822544 C-0.05952412 55.49014884 -0.05422321 47.91206879 -0.04882812 40.33398438 C-0.03922616 26.88930815 -0.0191732 13.4446735 0 0 Z " fill="#FBBA0B" transform="translate(663,562)"/>
<path d="M0 0 C0.33 0 0.66 0 1 0 C1.33 24.75 1.66 49.5 2 75 C18.83 75.495 18.83 75.495 36 76 C36 87.22 36 98.44 36 110 C24.45 110 12.9 110 1 110 C1.03029297 113.40175537 1.06058594 116.80351074 1.09179688 120.30834961 C1.19291456 131.68757711 1.29242217 143.06681841 1.39115143 154.44606686 C1.45090897 161.32920466 1.51117454 168.21233722 1.57275391 175.09545898 C1.63244315 181.7674862 1.69056107 188.43952557 1.74781799 195.11157417 C1.76964236 197.62698362 1.79194917 200.14238894 1.81480408 202.65778923 C1.99101775 222.10669509 2 241.54895224 2 261 C35 261 68 261 102 261 C102 261.33 102 261.66 102 262 C-75.21 262 -252.42 262 -435 262 C-435 261.67 -435 261.34 -435 261 C-380.88 261 -326.76 261 -271 261 C-270.67 187.08 -270.34 113.16 -270 37 C-269.67 37 -269.34 37 -269 37 C-269 98.71 -269 160.42 -269 224 C-180.23 224 -91.46 224 0 224 C0 150.08 0 76.16 0 0 Z " fill="#A4141A" transform="translate(662,452)"/>
<path d="M0 0 C9.24 0 18.48 0 28 0 C28.29245605 2.60293945 28.58491211 5.20587891 28.88623047 7.88769531 C29.85719468 16.52532048 30.83169211 25.16254445 31.80788994 33.79957962 C32.3991615 39.03188891 32.98927334 44.26432338 33.57666016 49.49707031 C34.14445111 54.55485092 34.7153859 59.61226794 35.28842545 64.66945648 C35.50559676 66.59084414 35.72166942 68.51235634 35.93658066 70.43399811 C37.04479843 80.33673842 38.18154141 90.19623181 40 100 C45.79294732 68.02147449 51.47536747 36.02599611 57 4 C61.62 4 66.24 4 71 4 C74.1921862 15.73508449 76.19533526 27.65873069 78.3125 39.625 C78.71057485 41.8562659 79.10901525 44.08746662 79.5078125 46.31860352 C81.317256 56.45559636 83.10760312 66.59592518 84.88671875 76.73828125 C85.02733231 77.53897034 85.16794586 78.33965942 85.31282043 79.16461182 C85.95751598 82.83712659 86.59957608 86.51005438 87.2355957 90.18408203 C87.45691162 91.4523584 87.67822754 92.72063477 87.90625 94.02734375 C88.09509766 95.11781006 88.28394531 96.20827637 88.47851562 97.33178711 C88.95780711 100.08739617 88.95780711 100.08739617 90 103 C90.10609085 102.0193306 90.2121817 101.03866119 90.32148743 100.02827454 C91.33223553 90.68965501 92.34680838 81.3514575 93.36492634 72.0136385 C93.88796435 67.2154277 94.40975197 62.41708844 94.9284668 57.6184082 C95.43109153 52.96904333 95.93728142 48.32007809 96.44573021 43.67134666 C96.63707212 41.91649778 96.82722632 40.16151888 97.01604652 38.40639687 C98.3995689 25.55710716 100.12195517 12.78724111 102 0 C110.91 0 119.82 0 129 0 C129 6.10619757 128.81276062 11.58454438 127.91772461 17.53759766 C127.80204762 18.34207305 127.68637062 19.14654844 127.56718826 19.97540188 C127.18498335 22.62254458 126.79373673 25.26826405 126.40234375 27.9140625 C126.12912623 29.79284483 125.85645813 31.67170714 125.58430481 33.55064392 C124.85886603 38.54773999 124.12554967 43.54364991 123.39060974 48.53935623 C122.6356713 53.68043109 121.88815625 58.82258533 121.13964844 63.96459961 C117.78221538 87.00456717 114.40490008 110.04225284 110.91772461 133.06298828 C110.79032394 133.90736954 110.66292328 134.75175079 110.53166199 135.62171936 C110.30554016 137.11889537 110.07805127 138.61586619 109.84858704 140.11253357 C109.09990547 145.07273534 108.55522988 150.00293112 108 155 C98.76 155 89.52 155 80 155 C79.40832031 152.30714844 78.81664062 149.61429688 78.20703125 146.83984375 C78.0051268 145.9210997 77.80322235 145.00235565 77.59519958 144.05577087 C76.58519965 139.45887544 75.57666218 134.86166547 74.57055664 130.26391602 C71.96172541 118.34360517 71.96172541 118.34360517 69.2890625 106.4375 C69.05469482 105.39601807 68.82032715 104.35453613 68.57885742 103.28149414 C68.16664176 101.45359151 67.74806028 99.62710648 67.3215332 97.80249023 C66.19016644 92.74763082 65.81598531 88.1820911 66 83 C65.34 83 64.68 83 64 83 C63.95563812 83.59443909 63.91127625 84.18887817 63.86557007 84.80133057 C63.30299803 91.35429577 62.11582685 97.5906645 60.6015625 103.984375 C60.36593597 105.00243225 60.13030945 106.0204895 59.88754272 107.06939697 C59.13920144 110.29765579 58.38244033 113.52386526 57.625 116.75 C56.63598282 120.99431856 55.65015277 125.23937564 54.6640625 129.484375 C54.42874817 130.49431519 54.19343384 131.50425537 53.95098877 132.5447998 C52.2149225 140.01341015 50.571607 147.49477473 49 155 C39.76 155 30.52 155 21 155 C20.55515259 151.75760498 20.55515259 151.75760498 20.10131836 148.44970703 C13.1000289 97.37427165 13.1000289 97.37427165 6 46.3125 C5.7973201 44.86583954 5.7973201 44.86583954 5.59054565 43.38995361 C5.20670058 40.65182519 4.82224039 37.913784 4.4375 35.17578125 C4.31955582 34.33515137 4.20161163 33.49452148 4.08009338 32.62841797 C3.4482549 28.13767144 2.8046172 23.64887932 2.1484375 19.16162109 C2.00865479 18.20039841 1.86887207 17.23917572 1.72485352 16.24882507 C1.4569465 14.40961127 1.18673166 12.57073163 0.91381836 10.73225403 C0.79401611 9.90819565 0.67421387 9.08413727 0.55078125 8.23510742 C0.44419189 7.51191818 0.33760254 6.78872894 0.2277832 6.04362488 C0 4 0 4 0 0 Z " fill="#F8F2E4" transform="translate(63,750)"/>
<path d="M0 0 C23.43 0 46.86 0 71 0 C71 49.83 71 99.66 71 151 C47.57 151 24.14 151 0 151 C0 101.17 0 51.34 0 0 Z " fill="#DB6604" transform="translate(227,562)"/>
<path d="M0 0 C0.33 0 0.66 0 1 0 C1.33 66.66 1.66 133.32 2 202 C22.79 202 43.58 202 65 202 C65 202.33 65 202.66 65 203 C45.2 203 25.4 203 5 203 C5 249.53 5 296.06 5 344 C-18.43 344 -41.86 344 -66 344 C-66 297.47 -66 250.94 -66 203 C-44.22 203 -22.44 203 0 203 C0 136.01 0 69.02 0 0 Z " fill="#9D1318" transform="translate(293,218)"/>
<path d="M0 0 C33.66 0 67.32 0 102 0 C102 26.4 102 52.8 102 80 C68.34 80 34.68 80 0 80 C0 53.6 0 27.2 0 0 Z " fill="#D75606" transform="translate(258,138)"/>
<path d="M0 0 C1.05822464 -0.02551941 2.11644928 -0.05103882 3.20674133 -0.07733154 C4.34532089 -0.08178284 5.48390045 -0.08623413 6.65698242 -0.09082031 C7.83330734 -0.10413391 9.00963226 -0.11744751 10.22160339 -0.13116455 C12.7104975 -0.15141413 15.19950016 -0.16079869 17.68847656 -0.16015625 C21.48905454 -0.16889154 25.28496312 -0.24148138 29.0847168 -0.31738281 C31.50462281 -0.329122 33.92455086 -0.33705888 36.34448242 -0.34082031 C37.47698929 -0.36956238 38.60949615 -0.39830444 39.77632141 -0.42791748 C47.53432607 -0.33849562 47.53432607 -0.33849562 50.90106201 2.31748962 C52.65353345 4.32820834 54.15725656 6.40877412 55.69995117 8.58105469 C56.81644253 9.61648373 57.95165675 10.63254807 59.11401367 11.61621094 C63.63785607 16.90805449 62.31785552 24.47312283 62.07495117 31.01855469 C62.0448143 32.43190935 62.01744502 33.84532589 61.99291992 35.25878906 C61.93232971 38.70233251 61.81495938 42.13719788 61.69995117 45.58105469 C53.11995117 45.58105469 44.53995117 45.58105469 35.69995117 45.58105469 C35.69995117 38.98105469 35.69995117 32.38105469 35.69995117 25.58105469 C26.12995117 25.58105469 16.55995117 25.58105469 6.69995117 25.58105469 C7.02995117 60.23105469 7.35995117 94.88105469 7.69995117 130.58105469 C16.60995117 130.58105469 25.51995117 130.58105469 34.69995117 130.58105469 C34.69995117 124.31105469 34.69995117 118.04105469 34.69995117 111.58105469 C43.60995117 111.58105469 52.51995117 111.58105469 61.69995117 111.58105469 C62.00292876 115.60521858 62.25944234 119.59975535 62.4140625 123.62939453 C62.50985295 125.65121473 62.67525707 127.66935892 62.8425293 129.68652344 C63.09571992 137.59386125 61.89589202 143.29133323 56.89916992 149.46777344 C50.8465445 155.91505763 44.21639864 156.96619823 35.63745117 157.40527344 C31.92087415 157.47090202 28.2235444 157.444722 24.50756836 157.35131836 C20.70254332 157.26861103 16.91879047 157.33027547 13.11401367 157.40722656 C10.66343234 157.39437884 8.21287763 157.37317224 5.76245117 157.34277344 C4.64539795 157.36595139 3.52834473 157.38912933 2.37744141 157.41300964 C-5.26629825 157.09962517 -10.86127297 154.44112056 -16.22392559 149.10959625 C-23.76329357 139.87392563 -21.92418832 126.84870597 -21.61817002 115.61793876 C-21.53614162 112.09359106 -21.52920842 108.56905452 -21.51383972 105.04389954 C-21.47365038 98.38832012 -21.36728566 91.73556199 -21.23629636 85.08121759 C-21.09029592 77.49742274 -21.01934256 69.91348324 -20.9542557 62.32862985 C-20.81886646 46.74447847 -20.59065275 31.16313225 -20.30004883 15.58105469 C-19.64004883 15.58105469 -18.98004883 15.58105469 -18.30004883 15.58105469 C-18.0396582 14.99324219 -17.77926758 14.40542969 -17.51098633 13.79980469 C-16.22535399 11.44419448 -14.85450139 9.93467724 -12.92504883 8.08105469 C-12.33981445 7.51386719 -11.75458008 6.94667969 -11.15161133 6.36230469 C-10.5405957 5.77449219 -9.92958008 5.18667969 -9.30004883 4.58105469 C-8.71117386 3.89630066 -8.12229889 3.21154663 -7.51557922 2.50604248 C-4.80869545 0.15413693 -3.5413317 0.05810275 0 0 Z " fill="#F8F2E4" transform="translate(566.300048828125,749.4189453125)"/>
<path d="M0 0 C1.51647377 -0.01796883 1.51647377 -0.01796883 3.06358337 -0.03630066 C5.17517551 -0.0420597 7.28718071 -0.0109935 9.39770508 0.05639648 C12.59722223 0.14473497 15.76764264 0.07741739 18.96679688 -0.00585938 C28.62512564 -0.04624486 37.50657281 0.6499977 44.96875 7.328125 C51.82739508 14.59425807 51.93945956 23.16976775 51.86747742 32.72975159 C51.75628892 36.43356451 51.58125033 40.13093151 51.40234375 43.83203125 C51.33200826 46.36961899 51.26814935 48.90739496 51.2109375 51.4453125 C51.06967853 57.62438356 50.79604041 63.77700806 50.52734375 69.95703125 C33.69734375 69.95703125 16.86734375 69.95703125 -0.47265625 69.95703125 C-0.47265625 77.87703125 -0.47265625 85.79703125 -0.47265625 93.95703125 C7.77734375 93.95703125 16.02734375 93.95703125 24.52734375 93.95703125 C24.52734375 91.31703125 24.52734375 88.67703125 24.52734375 85.95703125 C33.10734375 85.95703125 41.68734375 85.95703125 50.52734375 85.95703125 C52.37693399 99.89061104 52.37693399 99.89061104 48.00927734 106.05615234 C41.96823831 113.12916403 36.42299842 117.64275427 26.97834778 118.63310242 C22.78435724 118.82517462 18.63196816 118.80288386 14.43725586 118.63793945 C11.19737127 118.51888922 7.97787367 118.53527488 4.73632812 118.56835938 C-12.32539246 118.4491708 -12.32539246 118.4491708 -18.703125 112.171875 C-20.72729492 109.57788086 -20.72729492 109.57788086 -22.47265625 106.95703125 C-23.49524033 105.8900425 -23.49524033 105.8900425 -24.53848267 104.80149841 C-27.01431688 101.1604451 -27.11284339 98.08550171 -27.16479492 93.82470703 C-27.20181267 92.61617317 -27.20181267 92.61617317 -27.23957825 91.38322449 C-27.31316002 88.72288135 -27.35514538 86.06345439 -27.390625 83.40234375 C-27.40567896 82.48788357 -27.42073292 81.57342339 -27.43624306 80.63125229 C-27.51374741 75.78347993 -27.56589538 70.93616445 -27.59838867 66.08789062 C-27.63690248 61.11495883 -27.76386761 56.14851569 -27.91187572 51.17781258 C-28.00970935 47.32540909 -28.03932233 43.4745051 -28.05156898 39.62096786 C-28.06904441 37.79082421 -28.11147904 35.96072048 -28.18086815 34.13180923 C-28.51648061 24.67535151 -28.0041458 17.68407 -21.57587051 10.34078312 C-15.14536043 3.85330639 -9.44969634 -0.34090952 0 0 Z " fill="#F8F2E4" transform="translate(748.47265625,788.04296875)"/>
<path d="M0 0 C0.97932495 -0.0232988 1.9586499 -0.0465976 2.96765137 -0.07060242 C5.0384228 -0.10596092 7.10959109 -0.12246452 9.18066406 -0.12133789 C12.31226345 -0.13656564 15.42618088 -0.26328808 18.5546875 -0.39648438 C28.15119919 -0.60087945 36.83165316 -0.15047255 44.2578125 6.515625 C51.13165662 13.80169375 51.2562477 22.36166755 51.18377686 31.94837952 C51.07269894 35.65223999 50.8976587 39.34963756 50.71875 43.05078125 C50.64841451 45.58836899 50.5845556 48.12614496 50.52734375 50.6640625 C50.38608478 56.84313356 50.11244666 62.99575806 49.84375 69.17578125 C33.67375 69.17578125 17.50375 69.17578125 0.84375 69.17578125 C0.84375 77.09578125 0.84375 85.01578125 0.84375 93.17578125 C8.76375 93.17578125 16.68375 93.17578125 24.84375 93.17578125 C24.84375 90.53578125 24.84375 87.89578125 24.84375 85.17578125 C33.09375 85.17578125 41.34375 85.17578125 49.84375 85.17578125 C50.80446695 99.58653554 50.80446695 99.58653554 48.2734375 103.7734375 C46.21875 105.73828125 46.21875 105.73828125 44.1796875 107.3046875 C41.86495741 108.98187971 41.86495741 108.98187971 40.66142273 110.84965515 C38.63724731 113.70545897 37.02758247 115.79902383 33.62017822 116.88343811 C30.94476112 117.20064596 28.34662367 117.30299111 25.65234375 117.31640625 C24.67064713 117.33733337 23.6889505 117.3582605 22.67750549 117.37982178 C20.60249745 117.41080602 18.52713726 117.42311941 16.4519043 117.41796875 C13.31012622 117.4257101 10.18413229 117.53963586 7.04492188 117.66015625 C-1.99705417 117.81176363 -9.43342282 117.93354437 -16.35545349 111.53314209 C-21.99426567 105.53892667 -24.30104529 101.53762795 -24.39672852 93.27294922 C-24.40972488 92.45645401 -24.42272125 91.6399588 -24.43611145 90.79872131 C-24.56296326 82.24920012 -24.61959957 73.69868837 -24.67114258 65.1484375 C-24.69787044 61.09352009 -24.74657415 57.03978086 -24.81469727 52.98535156 C-24.89678024 48.08754191 -24.9393475 43.19085287 -24.95420647 38.29239273 C-24.96643378 36.42883333 -24.99241962 34.56530972 -25.03265572 32.70214462 C-25.33120979 18.14549607 -25.33120979 18.14549607 -22.5307312 13.45074463 C-20.52394228 11.45031736 -18.42959279 9.85853828 -16.15625 8.17578125 C-15.17280663 6.88812059 -14.21600854 5.57953784 -13.29101562 4.24926758 C-9.60996153 -0.10208762 -5.42078476 0.04534125 0 0 Z " fill="#F9F3E5" transform="translate(483.15625,788.82421875)"/>
<path d="M0 0 C20.79 0 41.58 0 63 0 C63 10.23 63 20.46 63 31 C42.54 31.33 22.08 31.66 1 32 C0.67 43.88 0.34 55.76 0 68 C-45.54 68 -91.08 68 -138 68 C-138 55.79 -138 43.58 -138 31 C-92.46 31 -46.92 31 0 31 C0 20.77 0 10.54 0 0 Z " fill="#8F1216" transform="translate(599,421)"/>
<path d="M0 0 C8.58 0 17.16 0 26 0 C26.33 3.3 26.66 6.6 27 10 C27.55429687 9.43410156 28.10859375 8.86820313 28.6796875 8.28515625 C29.40414063 7.55167969 30.12859375 6.81820312 30.875 6.0625 C31.95394531 4.96615234 31.95394531 4.96615234 33.0546875 3.84765625 C37.57643794 -0.44709869 43.75387836 0.31296443 49.6875 -0.0625 C50.85990234 -0.17271484 52.03230469 -0.28292969 53.24023438 -0.39648438 C61.74810592 -0.89129565 61.74810592 -0.89129565 65.21728516 1.57861328 C67.02122213 3.63082985 68.48800587 5.72570387 70 8 C70.84529266 8.83096695 71.69058533 9.6619339 72.56149292 10.51808167 C76.01820451 14.6689782 75.6678549 18.84689871 75.56762695 24.04443359 C75.56835709 25.04017395 75.56908722 26.03591431 75.56983948 27.06182861 C75.56636607 30.34125931 75.52751496 33.61925602 75.48828125 36.8984375 C75.47895229 39.1767194 75.47183657 41.45501136 75.46684265 43.73330688 C75.44777966 49.72092529 75.39868386 55.70793435 75.34332275 61.6953125 C75.2921158 67.8085099 75.26932545 73.92180606 75.24414062 80.03515625 C75.19056509 92.02374788 75.10263391 104.01172787 75 116 C66.42 116 57.84 116 49 116 C49 85.64 49 55.28 49 24 C41.41 24 33.82 24 26 24 C26 54.69 26 85.38 26 117 C17.42 117 8.84 117 0 117 C0 78.39 0 39.78 0 0 Z " fill="#F8F1E3" transform="translate(245,789)"/>
<path d="M0 0 C8.25 0 16.5 0 25 0 C25.33 2.97 25.66 5.94 26 9 C26.48944092 8.36553955 26.97888184 7.7310791 27.4831543 7.07739258 C31.77349338 2.10612449 34.92855463 -0.58862377 41.58203125 -1.30078125 C43.99164413 -1.35210561 46.40271538 -1.35500288 48.8125 -1.3125 C50.00681641 -1.37244141 51.20113281 -1.43238281 52.43164062 -1.49414062 C60.31054552 -1.48127361 65.42721626 0.76732549 70.96552658 6.17677689 C78.15105657 14.36176115 76.46630462 25.49477097 76.171875 35.703125 C76.1494605 37.99521417 76.13239455 40.28736131 76.12042236 42.57952881 C76.07486039 48.57828823 75.95722053 54.57349495 75.82397461 60.57086182 C75.70065252 66.70430447 75.64629223 72.83832803 75.5859375 78.97265625 C75.45769308 90.98357363 75.24683966 102.99093399 75 115 C66.75 115 58.5 115 50 115 C50 84.97 50 54.94 50 24 C41.75 24 33.5 24 25 24 C25 54.03 25 84.06 25 115 C16.75 115 8.5 115 0 115 C0 77.05 0 39.1 0 0 Z " fill="#F9F3E5" transform="translate(812,790)"/>
<path d="M0 0 C8.25 0 16.5 0 25 0 C25.33 2.64 25.66 5.28 26 8 C26.4959668 7.43772705 26.99193359 6.8754541 27.50292969 6.29614258 C32.92841746 0.7576747 37.00102938 -1.1124649 44.75390625 -1.33789062 C45.90761719 -1.32951172 47.06132812 -1.32113281 48.25 -1.3125 C49.38824219 -1.38533203 50.52648437 -1.45816406 51.69921875 -1.53320312 C60.05450363 -1.57588052 64.83655189 1.19920474 70.59500408 6.8299818 C78.08130478 15.25464368 76.60487988 25.98234158 76.26953125 36.58203125 C76.24524373 38.85026243 76.22675805 41.11856245 76.21379089 43.3868866 C76.16447055 49.31854027 76.0370682 55.24596608 75.89263916 61.17596436 C75.75895221 67.24237889 75.70013172 73.30948591 75.63476562 79.37695312 C75.49590294 91.25344597 75.26751745 103.12570783 75 115 C66.75 115 58.5 115 50 115 C50 84.97 50 54.94 50 24 C41.75 24 33.5 24 25 24 C25 54.03 25 84.06 25 115 C16.75 115 8.5 115 0 115 C0 77.05 0 39.1 0 0 Z " fill="#F9F2E5" transform="translate(333,790)"/>
<path d="M0 0 C11.55 0 23.1 0 35 0 C35 49.83 35 99.66 35 151 C23.78 151 12.56 151 1 151 C-0.14653932 121.68651034 -0.12140253 92.40020099 -0.07202661 63.06803191 C-0.06063062 56.17266462 -0.05529623 49.27729608 -0.05032361 42.38192165 C-0.04000731 28.25460262 -0.02174822 14.12730596 0 0 Z " fill="#EA7C03" transform="translate(663,562)"/>
<path d="M0 0 C4.104375 -0.020625 8.20875 -0.04125 12.4375 -0.0625 C14.38160767 -0.07615601 14.38160767 -0.07615601 16.36499023 -0.09008789 C17.37762939 -0.09258545 18.39026855 -0.09508301 19.43359375 -0.09765625 C20.47572021 -0.10289307 21.51784668 -0.10812988 22.59155273 -0.11352539 C25 0 25 0 26 1 C26.08758003 2.99964982 26.10696576 5.0023611 26.09765625 7.00390625 C26.09443359 8.21884766 26.09121094 9.43378906 26.08789062 10.68554688 C26.07532227 12.60463867 26.07532227 12.60463867 26.0625 14.5625 C26.05798828 15.84576172 26.05347656 17.12902344 26.04882812 18.45117188 C26.03699555 21.6341342 26.01905944 24.81707274 26 28 C32.27 28 38.54 28 45 28 C45 35.59 45 43.18 45 51 C38.73 51 32.46 51 26 51 C26 73.77 26 96.54 26 120 C32.27 120 38.54 120 45 120 C45 127.59 45 135.18 45 143 C40.82720691 143.32656642 36.69996499 143.60228774 32.52441406 143.76904297 C31.11499886 143.83852118 29.70655685 143.93337863 28.30078125 144.05615234 C21.67432876 144.61940081 15.64537589 144.60713388 10.18981934 140.4519043 C4.4117788 135.32821758 -0.54296078 130.44674674 -1.48088837 122.51673889 C-1.67226877 118.51814433 -1.54758281 114.56686209 -1.3671875 110.5703125 C-1.34100534 108.84162503 -1.32111015 107.11283213 -1.30715942 105.38400269 C-1.25423902 100.87992603 -1.11725556 96.38238851 -0.96130371 91.88085938 C-0.81688073 87.26912908 -0.75389552 82.65631881 -0.68359375 78.04296875 C-0.53439744 69.0253409 -0.28865369 60.01424231 0 51 C-5.61 51 -11.22 51 -17 51 C-17 43.41 -17 35.82 -17 28 C-11.39 28 -5.78 28 0 28 C0 18.76 0 9.52 0 0 Z " fill="#F7F1E3" transform="translate(914,762)"/>
<path d="M0 0 C10.56 0 21.12 0 32 0 C31.67 24.42 31.34 48.84 31 74 C0.64 74 -29.72 74 -61 74 C-61 38 -61 38 -60 37 C-58.41580847 36.90141524 -56.82724566 36.87201262 -55.23999023 36.87060547 C-54.2248082 36.86745331 -53.20962616 36.86430115 -52.16368103 36.86105347 C-51.05650223 36.8630777 -49.94932343 36.86510193 -48.80859375 36.8671875 C-47.10788475 36.86575241 -47.10788475 36.86575241 -45.37281799 36.86428833 C-42.9642837 36.86360592 -40.55574759 36.86546439 -38.1472168 36.86962891 C-34.47765904 36.87494186 -30.80822562 36.8697039 -27.13867188 36.86328125 C-24.7994789 36.8639427 -22.460286 36.86522524 -20.12109375 36.8671875 C-19.02808456 36.86516327 -17.93507538 36.86313904 -16.8089447 36.86105347 C-15.25307396 36.86578171 -15.25307396 36.86578171 -13.66577148 36.87060547 C-12.76277817 36.87140106 -11.85978485 36.87219666 -10.9294281 36.87301636 C-7.2704046 37.0316262 -3.6341776 37.5457278 0 38 C0 25.46 0 12.92 0 0 Z " fill="#FBA607" transform="translate(359,638)"/>
<path d="M0 0 C0.33 0 0.66 0 1 0 C1 38.28 1 76.56 1 116 C43.24 116 85.48 116 129 116 C129 126.23 129 136.46 129 147 C83.46 147 37.92 147 -9 147 C-9 136.77 -9 126.54 -9 116 C-6.03 116 -3.06 116 0 116 C0 77.72 0 39.44 0 0 Z " fill="#BA4A05" transform="translate(470,305)"/>
<path d="M0 0 C8.25 0 16.5 0 25 0 C27.04539896 4.09079792 27.24943231 5.73371425 27.24723816 10.16886902 C27.25143265 11.43504562 27.25562714 12.70122223 27.25994873 14.00576782 C27.25446558 15.40643387 27.24878261 16.80709916 27.24291992 18.20776367 C27.24399298 19.68454574 27.24593202 21.16132739 27.24867249 22.6381073 C27.2535189 26.64611583 27.24586862 30.65401299 27.23571944 34.66200805 C27.2269397 38.85225153 27.22869634 43.04249151 27.2290802 47.23274231 C27.22814379 54.26642727 27.21946131 61.30006907 27.20581055 68.33374023 C27.19006697 76.47606051 27.18481308 84.61833358 27.1855461 92.76066798 C27.18615545 100.58497728 27.18105971 108.40927115 27.17275429 116.23357582 C27.16921575 119.56809929 27.16739023 122.9026173 27.16686058 126.23714256 C27.16585941 130.15806252 27.15978147 134.07894253 27.14969444 137.99984932 C27.14676273 139.44266897 27.14554542 140.88549322 27.14612198 142.32831573 C27.14660932 144.28957543 27.14036346 146.25083343 27.13371277 148.21208191 C27.13203692 149.31211642 27.13036108 150.41215094 27.12863445 151.54551983 C27 154 27 154 26 155 C17.42 155 8.84 155 0 155 C0 103.85 0 52.7 0 0 Z " fill="#F9F2E4" transform="translate(641,750)"/>
<path d="M0 0 C32.34 0 64.68 0 98 0 C98 12.87 98 25.74 98 39 C65.66 39 33.32 39 0 39 C0 26.13 0 13.26 0 0 Z " fill="#FBB80A" transform="translate(632,99)"/>
<path d="M0 0 C32.01 0 64.02 0 97 0 C97 12.87 97 25.74 97 39 C64.99 39 32.98 39 0 39 C0 26.13 0 13.26 0 0 Z " fill="#FBB90A" transform="translate(294,99)"/>
<path d="M0 0 C10.56 0 21.12 0 32 0 C32 12.87 32 25.74 32 39 C34.64 38.67 37.28 38.34 40 38 C42.181088 37.91507665 44.36413556 37.86950183 46.546875 37.8671875 C48.30837891 37.86525391 48.30837891 37.86525391 50.10546875 37.86328125 C51.90951172 37.86908203 51.90951172 37.86908203 53.75 37.875 C54.96816406 37.87113281 56.18632812 37.86726562 57.44140625 37.86328125 C59.19517578 37.86521484 59.19517578 37.86521484 60.984375 37.8671875 C62.57330566 37.86887939 62.57330566 37.86887939 64.19433594 37.87060547 C67 38 67 38 71 39 C71 50.22 71 61.44 71 73 C47.57 73 24.14 73 0 73 C0 48.91 0 24.82 0 0 Z " fill="#891016" transform="translate(227,489)"/>
<path d="M0 0 C0 11.22 0 22.44 0 34 C-31.02 34 -62.04 34 -94 34 C-94 22.78 -94 11.56 -94 0 C-84.52096377 -0.19754324 -75.04199043 -0.38926498 -65.5625 -0.5625 C-64.86623631 -0.57523327 -64.16997261 -0.58796654 -63.45261002 -0.60108566 C-42.25802771 -0.9840414 -21.18581075 -0.9392724 0 0 Z " fill="#BC131D" transform="translate(392,528)"/>
<path d="M0 0 C0.33 0 0.66 0 1 0 C1 49.5 1 99 1 150 C23.77 150 46.54 150 70 150 C69.67 138.12 69.34 126.24 69 114 C57.12 114 45.24 114 33 114 C31.83964495 110.51893486 31.87997296 107.8152767 31.88647461 104.1418457 C31.88632858 103.44890411 31.88618256 102.75596252 31.8860321 102.04202271 C31.88672837 99.75324363 31.8945074 97.4645461 31.90234375 95.17578125 C31.90420894 93.58823186 31.90563237 92.00068189 31.90663147 90.41313171 C31.91044866 86.2357728 31.92027214 82.05844869 31.93133545 77.88110352 C31.94336574 72.8684028 31.94795561 67.85569045 31.95378876 62.84297943 C31.96348431 55.22862876 31.98264644 47.61435443 32 40 C44.54 40 57.08 40 70 40 C70 27.46 70 14.92 70 2 C47.56 2 25.12 2 2 2 C2 1.67 2 1.34 2 1 C24.77 1 47.54 1 71 1 C71 50.5 71 100 71 151 C47.57 151 24.14 151 0 151 C0 101.17 0 51.34 0 0 Z " fill="#E97903" transform="translate(227,562)"/>
<path d="M0 0 C8.58 0 17.16 0 26 0 C26 37.95 26 75.9 26 115 C17.42 115 8.84 115 0 115 C0 77.05 0 39.1 0 0 Z " fill="#F8F2E4" transform="translate(420,790)"/>
<path d="M0 0 C23.43 0.33 46.86 0.66 71 1 C71 14.53 71 28.06 71 42 C47.57 42 24.14 42 0 42 C0 28.14 0 14.28 0 0 Z " fill="#F99605" transform="translate(519,340)"/>
<path d="M0 0 C8.25 0 16.5 0 25 0 C25 37.95 25 75.9 25 115 C16.75 115 8.5 115 0 115 C0 77.05 0 39.1 0 0 Z " fill="#F9F3E5" transform="translate(684,790)"/>
<path d="M0 0 C8.25 0 16.5 0 25 0 C25 37.95 25 75.9 25 115 C16.75 115 8.5 115 0 115 C0 77.05 0 39.1 0 0 Z " fill="#F9F3E6" transform="translate(205,790)"/>
<path d="M0 0 C23.43 0 46.86 0 71 0 C71 13.2 71 26.4 71 40 C47.57 40 24.14 40 0 40 C0 26.8 0 13.6 0 0 Z " fill="#17191E" transform="translate(519,299)"/>
<path d="M0 0 C11.55 0 23.1 0 35 0 C35 26.07 35 52.14 35 79 C23.45 79 11.9 79 0 79 C0 52.93 0 26.86 0 0 Z " fill="#FBAD09" transform="translate(730,139)"/>
<path d="M0 0 C11.55 0 23.1 0 35 0 C35 26.07 35 52.14 35 79 C23.45 79 11.9 79 0 79 C0 52.93 0 26.86 0 0 Z " fill="#FBB309" transform="translate(258,139)"/>
<path d="M0 0 C0.33 0 0.66 0 1 0 C1 41.91 1 83.82 1 127 C-20.12 127 -41.24 127 -63 127 C-63.020625 121.26625 -63.04125 115.5325 -63.0625 109.625 C-63.071604 107.81596191 -63.08070801 106.00692383 -63.09008789 104.14306641 C-63.09300792 102.71256586 -63.09555628 101.28206449 -63.09765625 99.8515625 C-63.10277222 99.10608154 -63.10788818 98.36060059 -63.11315918 97.5925293 C-63.1140718 92.2281436 -63.1140718 92.2281436 -62 90 C-41.87 90 -21.74 90 -1 90 C-1 83.73 -1 77.46 -1 71 C-0.93866542 65.20404574 -0.86849513 59.40881888 -0.78125 53.61328125 C-0.75871088 52.04860095 -0.73629325 50.4839189 -0.71398926 48.91923523 C-0.65600493 44.8736289 -0.59641204 40.82804796 -0.53643799 36.7824707 C-0.47510795 32.62517732 -0.41536285 28.46786115 -0.35546875 24.31054688 C-0.23849593 16.20700866 -0.11981708 8.10349666 0 0 Z " fill="#FBA607" transform="translate(761,585)"/>
<path d="M0 0 C0.33 0 0.66 0 1 0 C1 35.31 1 70.62 1 107 C-20.78 107 -42.56 107 -65 107 C-65 95.78 -65 84.56 -65 73 C-43.88 73 -22.76 73 -1 73 C-0.67 48.91 -0.34 24.82 0 0 Z " fill="#BB131D" transform="translate(763,455)"/>
<path d="M0 0 C22.77 0 45.54 0 69 0 C69 10.23 69 20.46 69 31 C46.23 31 23.46 31 0 31 C0 20.77 0 10.54 0 0 Z " fill="#7E1115" transform="translate(392,421)"/>
<path d="M0 0 C20.79 0 41.58 0 63 0 C63 10.23 63 20.46 63 31 C42.21 31 21.42 31 0 31 C0 20.77 0 10.54 0 0 Z " fill="#6D0F15" transform="translate(599,421)"/>
<path d="M0 0 C13.86 0 27.72 0 42 0 C42 14.52 42 29.04 42 44 C28.14 44 14.28 44 0 44 C0 29.48 0 14.96 0 0 Z " fill="#181A1E" transform="translate(595,255)"/>
<path d="M0 0 C13.86 0 27.72 0 42 0 C42 14.52 42 29.04 42 44 C28.14 44 14.28 44 0 44 C0 29.48 0 14.96 0 0 Z " fill="#16171F" transform="translate(428,255)"/>
<path d="M0 0 C1.35513954 0.00539291 1.35513954 0.00539291 2.73765564 0.01089478 C3.68389801 0.01074875 4.63014038 0.01060272 5.60505676 0.01045227 C8.74880729 0.0111518 11.89249938 0.01894608 15.03623962 0.02676392 C17.20957405 0.02862795 19.3829089 0.03005192 21.5562439 0.03105164 C27.28884533 0.03487795 33.0214216 0.0447092 38.75401306 0.05575562 C44.59873616 0.0659673 50.44346331 0.07054873 56.28819275 0.07559204 C67.76541737 0.08633137 79.24262328 0.10340915 90.71983337 0.12442017 C90.71983337 0.45442017 90.71983337 0.78442017 90.71983337 1.12442017 C70.58983337 1.12442017 50.45983337 1.12442017 29.71983337 1.12442017 C29.71983337 13.99442017 29.71983337 26.86442017 29.71983337 40.12442017 C17.50983337 40.12442017 5.29983337 40.12442017 -7.28016663 40.12442017 C-7.30307396 34.58848027 -7.32300153 29.05270361 -7.33509827 23.51675415 C-7.34013907 21.63198287 -7.34697161 19.74721552 -7.35560608 17.86245728 C-7.3676828 15.15940381 -7.37339731 12.45640186 -7.37782288 9.75332642 C-7.38298416 8.90541031 -7.38814545 8.0574942 -7.39346313 7.18388367 C-7.39365857 5.16370948 -7.34222873 3.14364083 -7.28016663 1.12442017 C-5.36952364 -0.78622282 -2.54188767 0.00427405 0 0 Z " fill="#F38805" transform="translate(638.2801666259766,137.87557983398438)"/>
<path d="M0 0 C0.33 0 0.66 0 1 0 C1.33 24.75 1.66 49.5 2 75 C13.22 75.33 24.44 75.66 36 76 C36 87.22 36 98.44 36 110 C24.45 110 12.9 110 1 110 C1 157.85 1 205.7 1 255 C0.67 255 0.34 255 0 255 C0 170.85 0 86.7 0 0 Z " fill="#900F17" transform="translate(662,452)"/>
<path d="M0 0 C5.754375 -0.020625 11.50875 -0.04125 17.4375 -0.0625 C19.25564209 -0.071604 21.07378418 -0.08070801 22.94702148 -0.09008789 C24.38004482 -0.09300711 25.81306898 -0.09555566 27.24609375 -0.09765625 C27.99669067 -0.10277222 28.7472876 -0.10788818 29.52062988 -0.11315918 C31.34747601 -0.11346992 33.17421683 -0.06231113 35 0 C36.57683227 1.57683227 36.1297848 3.16100519 36.1328125 5.34765625 C36.13474609 6.25628418 36.13667969 7.16491211 36.13867188 8.10107422 C36.13416016 9.07834473 36.12964844 10.05561523 36.125 11.0625 C36.12306641 12.05008301 36.12113281 13.03766602 36.11914062 14.05517578 C36.07050179 22.40889628 35.62861166 30.67089551 35 39 C40.61 39 46.22 39 52 39 C52 39.33 52 39.66 52 40 C34.84 40 17.68 40 0 40 C0 26.8 0 13.6 0 0 Z " fill="#FCAA07" transform="translate(392,379)"/>
<path d="M0 0 C0.66 0 1.32 0 2 0 C1.67 12.21 1.34 24.42 1 37 C12.22 37 23.44 37 35 37 C35 49.87 35 62.74 35 76 C29.410625 76.020625 23.82125 76.04125 18.0625 76.0625 C16.29656494 76.071604 14.53062988 76.08070801 12.71118164 76.09008789 C11.31917395 76.09300714 9.92716541 76.09555567 8.53515625 76.09765625 C7.80615112 76.10277222 7.077146 76.10788818 6.3260498 76.11315918 C4.55029924 76.11347011 2.77465792 76.06228515 1 76 C-0.66165207 74.33834793 -0.11959725 72.3348397 -0.12442017 70.11598206 C-0.12082489 69.41827194 -0.11722961 68.72056183 -0.11352539 68.00170898 C-0.11367142 67.27004517 -0.11381744 66.53838135 -0.1139679 65.7845459 C-0.11326867 63.35503216 -0.10547585 60.92559417 -0.09765625 58.49609375 C-0.0957921 56.81600486 -0.09436819 55.13591543 -0.09336853 53.45582581 C-0.08954307 49.02526357 -0.07971256 44.5947339 -0.06866455 40.16418457 C-0.05845103 35.64657024 -0.05387104 31.12895066 -0.04882812 26.61132812 C-0.03809031 17.74087107 -0.02101356 8.87043824 0 0 Z " fill="#B4131C" transform="translate(663,452)"/>
<path d="M0 0 C12.21 0 24.42 0 37 0 C37.020625 3.8775 37.04125 7.755 37.0625 11.75 C37.071604 12.94592773 37.08070801 14.14185547 37.09008789 15.37402344 C37.10839947 22.59705406 36.99761747 29.83451755 36 37 C35 38 35 38 31.76538086 38.11352539 C30.33185875 38.11327438 28.89833058 38.10771608 27.46484375 38.09765625 C26.46378601 38.09614563 26.46378601 38.09614563 25.44250488 38.09460449 C22.9408192 38.08935808 20.43915794 38.07539691 17.9375 38.0625 C9.5534375 38.0315625 9.5534375 38.0315625 1 38 C0.67 25.46 0.34 12.92 0 0 Z " fill="#DE6604" transform="translate(294,218)"/>
<path d="M0 0 C11.55 0 23.1 0 35 0 C35.33 12.54 35.66 25.08 36 38 C24.12 38 12.24 38 0 38 C0 25.46 0 12.92 0 0 Z " fill="#FBA006" transform="translate(392,140)"/>
<path d="M0 0 C10.56 0 21.12 0 32 0 C32 13.2 32 26.4 32 40 C21.44 40 10.88 40 0 40 C0 26.8 0 13.6 0 0 Z " fill="#FCAA07" transform="translate(663,379)"/>
<path d="M0 0 C10.89 0 21.78 0 33 0 C33 12.54 33 25.08 33 38 C22.11 38 11.22 38 0 38 C0 25.46 0 12.92 0 0 Z " fill="#F38304" transform="translate(696,218)"/>
<path d="M0 0 C10.56 0 21.12 0 32 0 C32 12.54 32 25.08 32 38 C21.44 38 10.88 38 0 38 C0 25.46 0 12.92 0 0 Z " fill="#FCA607" transform="translate(698,564)"/>
<path d="M0 0 C9.9 0 19.8 0 30 0 C30 13.2 30 26.4 30 40 C20.1 40 10.2 40 0 40 C0 26.8 0 13.6 0 0 Z " fill="#BA3C08" transform="translate(330,178)"/>
<path d="M0 0 C10.23 0 20.46 0 31 0 C31.16544555 5.2509873 31.32782742 10.50187602 31.48217773 15.75317383 C31.53567402 17.54099032 31.59100904 19.32875275 31.64819336 21.11645508 C31.72989235 23.68038266 31.80505945 26.24442953 31.87890625 28.80859375 C31.90594131 29.6127623 31.93297638 30.41693085 31.96083069 31.24546814 C32.01285627 33.16298422 32.01187441 35.08181503 32 37 C31 38 31 38 28.04077148 38.11352539 C26.74727783 38.10828857 25.45378418 38.10305176 24.12109375 38.09765625 C22.86482178 38.09515869 21.6085498 38.09266113 20.31420898 38.09008789 C18.70489502 38.08098389 17.09558105 38.07187988 15.4375 38.0625 C10.343125 38.041875 5.24875 38.02125 0 38 C0 25.46 0 12.92 0 0 Z " fill="#FCA807" transform="translate(359,564)"/>
<path d="M0 0 C11.55 0 23.1 0 35 0 C35.185625 2.825625 35.37125 5.65125 35.5625 8.5625 C35.62381104 9.43849854 35.68512207 10.31449707 35.74829102 11.21704102 C36.0357206 15.97440354 35.78839565 20.27546605 35 25 C35 26.32 35 27.64 35 29 C23.45 29 11.9 29 0 29 C0 19.43 0 9.86 0 0 Z " fill="#8E1417" transform="translate(392,422)"/>
<path d="M0 0 C10.56 0 21.12 0 32 0 C32 9.9 32 19.8 32 30 C21.44 30 10.88 30 0 30 C0 20.1 0 10.2 0 0 Z " fill="#911418" transform="translate(630,422)"/>
<path d="M0 0 C8.91 0 17.82 0 27 0 C27 8.25 27 16.5 27 25 C18.09 25 9.18 25 0 25 C0 16.75 0 8.5 0 0 Z " fill="#F9F1E2" transform="translate(683,750)"/>
<path d="M0 0 C8.91 0 17.82 0 27 0 C27 8.25 27 16.5 27 25 C18.09 25 9.18 25 0 25 C0 16.75 0 8.5 0 0 Z " fill="#F9F1E2" transform="translate(204,750)"/>
<path d="M0 0 C8.58 0 17.16 0 26 0 C26 8.25 26 16.5 26 25 C17.42 25 8.84 25 0 25 C0 16.75 0 8.5 0 0 Z " fill="#FAF4E7" transform="translate(420,750)"/>
<path d="M0 0 C8.25 0 16.5 0 25 0 C25 8.25 25 16.5 25 25 C16.75 25 8.5 25 0 25 C0 16.75 0 8.5 0 0 Z " fill="#16191E" transform="translate(748,813)"/>
<path d="M0 0 C7.92 0 15.84 0 24 0 C24.33 8.25 24.66 16.5 25 25 C16.75 25 8.5 25 0 25 C0 16.75 0 8.5 0 0 Z " fill="#17191E" transform="translate(484,813)"/>
<path d="M0 0 C8.58 0 17.16 0 26 0 C26.33 3.3 26.66 6.6 27 10 C28.98 8.02 30.96 6.04 33 4 C33.66 4.33 34.32 4.66 35 5 C33.90536178 6.17561146 32.79892814 7.3402489 31.6875 8.5 C31.07261719 9.1496875 30.45773437 9.799375 29.82421875 10.46875 C28 12 28 12 25 12 C25 8.7 25 5.4 25 2 C17.41 2 9.82 2 2 2 C2 39.29 2 76.58 2 115 C9.59 115 17.18 115 25 115 C25 85.63 25 56.26 25 26 C25.33 26 25.66 26 26 26 C26 56.03 26 86.06 26 117 C17.42 117 8.84 117 0 117 C0 78.39 0 39.78 0 0 Z " fill="#D7D5D2" transform="translate(245,789)"/>
<path d="M0 0 C6.7318403 3.04584174 12.72897256 7.22157716 16 14 C18.02747859 23.37213058 17.12682837 33.23923121 16.75 42.75 C16.68973792 45.39310795 16.63499726 48.03634789 16.5859375 50.6796875 C16.45440124 57.12269477 16.25423487 63.56072846 16 70 C13.58225419 71.20887291 12.06668936 71.12059343 9.36669922 71.11352539 C8.40585419 71.11344986 7.44500916 71.11337433 6.45504761 71.11329651 C5.41542877 71.10813522 4.37580994 71.10297394 3.3046875 71.09765625 C2.24210724 71.0962413 1.17952698 71.09482635 0.08474731 71.09336853 C-3.31853009 71.08775834 -6.72174238 71.07520409 -10.125 71.0625 C-12.42838447 71.05748631 -14.73176997 71.05292318 -17.03515625 71.04882812 C-22.69012936 71.03778559 -28.34505363 71.02051409 -34 71 C-34 77.6 -34 84.2 -34 91 C-26.74 91 -19.48 91 -12 91 C-12 88.69 -12 86.38 -12 84 C-10.22550406 82.22550406 -7.64982739 82.86969928 -5.25 82.8671875 C-4.0846875 82.86589844 -2.919375 82.86460937 -1.71875 82.86328125 C-0.4915625 82.86714844 0.735625 82.87101563 2 82.875 C3.84078125 82.86919922 3.84078125 82.86919922 5.71875 82.86328125 C6.8840625 82.86457031 8.049375 82.86585938 9.25 82.8671875 C10.32765625 82.86831543 11.4053125 82.86944336 12.515625 82.87060547 C15 83 15 83 16 84 C17.41259564 99.71512655 17.41259564 99.71512655 14.4375 104.52734375 C12.5 106.125 12.5 106.125 9 108 C10.68126967 104.24947534 10.68126967 104.24947534 12.58203125 102.76171875 C14.91503092 99.86314341 14.57735609 96.38736485 14.6875 92.8125 C14.790625 90.234375 14.89375 87.65625 15 85 C6.42 85 -2.16 85 -11 85 C-11 87.64 -11 90.28 -11 93 C-19.25 93 -27.5 93 -36 93 C-36 85.08 -36 77.16 -36 69 C-19.17 69 -2.34 69 15 69 C15.17977774 61.55720148 15.31495692 54.13913207 15.34179688 46.69775391 C15.36371759 44.1739702 15.41042556 41.65026515 15.48339844 39.12744141 C16.40238334 22.36751812 16.40238334 22.36751812 8.89517212 8.13894653 C6.06315316 5.53918829 3.11483251 3.25299322 0 1 C0 0.67 0 0.34 0 0 Z " fill="#030406" transform="translate(784,789)"/>
<path d="M0 0 C23.43 0 46.86 0 71 0 C71 13.2 71 26.4 71 40 C47.57 40 24.14 40 0 40 C0 26.8 0 13.6 0 0 Z M2 2 C2 14.21 2 26.42 2 39 C24.11 39 46.22 39 69 39 C69 26.79 69 14.58 69 2 C46.89 2 24.78 2 2 2 Z " fill="#130E22" transform="translate(519,299)"/>
<path d="M0 0 C8.25 0 16.5 0 25 0 C25 30.36 25 60.72 25 92 C33.58 92 42.16 92 51 92 C51 92.33 51 92.66 51 93 C46.52084672 93.02886338 42.04171709 93.04675187 37.5625 93.0625 C36.28310547 93.07087891 35.00371094 93.07925781 33.68554688 93.08789062 C32.47060547 93.09111328 31.25566406 93.09433594 30.00390625 93.09765625 C28.87799072 93.10289307 27.7520752 93.10812988 26.59204102 93.11352539 C24 93 24 93 23 92 C22.90480632 89.2001028 22.87446056 86.42493826 22.88647461 83.62475586 C22.88632858 82.74678848 22.88618256 81.86882111 22.8860321 80.96424866 C22.88673156 78.04775565 22.89452545 75.13132567 22.90234375 72.21484375 C22.90420782 70.19845108 22.90563177 68.18205796 22.90663147 66.16566467 C22.91045756 60.84734862 22.92028861 55.5290597 22.93133545 50.21075439 C22.94154762 44.78829312 22.94612867 39.36582748 22.95117188 33.94335938 C22.9619108 23.29555906 22.97950833 12.64778602 23 2 C16.07 2 9.14 2 2 2 C2 31.37 2 60.74 2 91 C1.67 91 1.34 91 1 91 C0.67 60.97 0.34 30.94 0 0 Z " fill="#09090B" transform="translate(837,814)"/>
<path d="M0 0 C13.86 0 27.72 0 42 0 C42 14.52 42 29.04 42 44 C28.14 44 14.28 44 0 44 C0 29.48 0 14.96 0 0 Z M2 2 C2 15.53 2 29.06 2 43 C14.54 43 27.08 43 40 43 C40 29.47 40 15.94 40 2 C27.46 2 14.92 2 2 2 Z " fill="#2F2120" transform="translate(595,255)"/>
<path d="M0 0 C11.55 0 23.1 0 35 0 C35 26.07 35 52.14 35 79 C23.45 79 11.9 79 0 79 C0.33 53.59 0.66 28.18 1 2 C1.33 2 1.66 2 2 2 C2 26.75 2 51.5 2 77 C12.56 77 23.12 77 34 77 C34 51.92 34 26.84 34 1 C22.78 1 11.56 1 0 1 C0 0.67 0 0.34 0 0 Z " fill="#FED707" transform="translate(730,139)"/>
<path d="M0 0 C0.33 0 0.66 0 1 0 C1 6.93 1 13.86 1 21 C6.61 21 12.22 21 18 21 C17.96221436 23.29477295 17.92442871 25.5895459 17.88549805 27.95385742 C17.76954038 35.58130687 17.72623733 43.20796617 17.71759319 50.83625317 C17.71016931 55.45671789 17.67916066 60.07438799 17.59204102 64.6940918 C17.50867772 69.16256776 17.49015639 73.6272582 17.51441383 78.09639931 C17.51263764 79.7911877 17.48846454 81.48612211 17.44031334 83.18022728 C17.20470883 91.99140873 17.48398778 98.25457492 23.75468922 104.89143085 C26.39971772 107.4155878 29.12762243 109.73695794 32 112 C31.67 112.66 31.34 113.32 31 114 C24.50208791 110.17450993 19.32757431 105.90049295 16 99 C13.08269756 87.46841775 14.52037933 74.50184779 14.97003174 62.73931885 C15.12493794 58.25501445 15.19228858 53.76942538 15.26757812 49.28320312 C15.42729756 40.51861895 15.68242286 31.76028017 16 23 C14.94039062 23.03480469 13.88078125 23.06960938 12.7890625 23.10546875 C11.40105748 23.13360399 10.01303537 23.16090443 8.625 23.1875 C7.92632813 23.21263672 7.22765625 23.23777344 6.5078125 23.26367188 C4.4765625 23.29296875 4.4765625 23.29296875 1 23 C-1.18185426 19.72721861 -1.21432326 19.0648752 -0.9765625 15.33203125 C-0.925 14.43935547 -0.8734375 13.54667969 -0.8203125 12.62695312 C-0.75585938 11.69818359 -0.69140625 10.76941406 -0.625 9.8125 C-0.56828125 8.87212891 -0.5115625 7.93175781 -0.453125 6.96289062 C-0.31169923 4.64115091 -0.1602967 2.3205007 0 0 Z " fill="#040507" transform="translate(896,792)"/>
<path d="M0 0 C5.61 0 11.22 0 17 0 C17 0.33 17 0.66 17 1 C12.05 1 7.1 1 2 1 C2 7.6 2 14.2 2 21 C5.25520833 20.93489583 8.51041667 20.86979167 11.765625 20.8046875 C15 21 15 21 19 23 C19.33 48.41 19.66 73.82 20 100 C19.34 100 18.68 100 18 100 C17.67 74.92 17.34 49.84 17 24 C11.39 23.67 5.78 23.34 0 23 C0 15.41 0 7.82 0 0 Z " fill="#FEFBF2" transform="translate(897,790)"/>
<path d="M0 0 C8.91 0 17.82 0 27 0 C27 8.25 27 16.5 27 25 C18.09 25 9.18 25 0 25 C0 16.75 0 8.5 0 0 Z M2 2 C2 9.26 2 16.52 2 24 C9.92 24 17.84 24 26 24 C25.67 16.74 25.34 9.48 25 2 C17.41 2 9.82 2 2 2 Z " fill="#FCFAF4" transform="translate(204,750)"/>
<path d="M0 0 C1.20970459 0.00523682 2.41940918 0.01047363 3.66577148 0.01586914 C4.97094727 0.0190918 6.27612305 0.02231445 7.62084961 0.02563477 C9.00952213 0.03399138 10.39819401 0.04245634 11.78686523 0.05102539 C13.17944179 0.05603873 14.57202005 0.06060193 15.96459961 0.06469727 C19.38456394 0.07653105 22.80444367 0.09301659 26.22436523 0.11352539 C26.25322862 4.59267867 26.27111711 9.0718083 26.28686523 13.55102539 C26.29524414 14.83041992 26.30362305 16.10981445 26.31225586 17.42797852 C26.31708984 19.25039063 26.31708984 19.25039063 26.32202148 21.10961914 C26.32987671 22.79849243 26.32987671 22.79849243 26.33789062 24.52148438 C26.22436523 27.11352539 26.22436523 27.11352539 25.22436523 28.11352539 C23.16381213 28.21346071 21.09983934 28.24433445 19.03686523 28.24633789 C17.78131836 28.24762695 16.52577148 28.24891602 15.23217773 28.25024414 C14.57507813 28.24814941 13.91797852 28.24605469 13.2409668 28.24389648 C11.23275189 28.23854773 9.22476064 28.2438423 7.21655273 28.25024414 C5.96100586 28.24895508 4.70545898 28.24766602 3.41186523 28.24633789 C2.25041992 28.24520996 1.08897461 28.24408203 -0.10766602 28.24291992 C-2.77563477 28.11352539 -2.77563477 28.11352539 -3.77563477 27.11352539 C-3.87535262 25.19894257 -3.90644065 23.28070222 -3.90844727 21.36352539 C-3.90973633 20.19821289 -3.91102539 19.03290039 -3.91235352 17.83227539 C-3.90848633 16.60508789 -3.90461914 15.37790039 -3.90063477 14.11352539 C-3.90450195 12.88633789 -3.90836914 11.65915039 -3.91235352 10.39477539 C-3.91106445 9.22946289 -3.90977539 8.06415039 -3.90844727 6.86352539 C-3.90731934 5.78586914 -3.90619141 4.70821289 -3.9050293 3.59790039 C-3.72175319 0.07899915 -3.55113 0.14524368 0 0 Z M-1.77563477 1.11352539 C-1.77563477 9.36352539 -1.77563477 17.61352539 -1.77563477 26.11352539 C7.13436523 26.11352539 16.04436523 26.11352539 25.22436523 26.11352539 C25.22436523 17.86352539 25.22436523 9.61352539 25.22436523 1.11352539 C16.31436523 1.11352539 7.40436523 1.11352539 -1.77563477 1.11352539 Z " fill="#0B0C0D" transform="translate(684.775634765625,748.886474609375)"/>
<path d="M0 0 C8.91 0 17.82 0 27 0 C27 8.25 27 16.5 27 25 C18.09 25 9.18 25 0 25 C0 16.75 0 8.5 0 0 Z M1 2 C1 9.26 1 16.52 1 24 C8.92 24 16.84 24 25 24 C25 16.74 25 9.48 25 2 C17.08 2 9.16 2 1 2 Z " fill="#F9F7F3" transform="translate(683,750)"/>
<path d="M0 0 C8.25 0 16.5 0 25 0 C25 8.25 25 16.5 25 25 C16.75 25 8.5 25 0 25 C0 16.75 0 8.5 0 0 Z M2 1 C2 8.26 2 15.52 2 23 C9.26 23 16.52 23 24 23 C24 15.74 24 8.48 24 1 C16.74 1 9.48 1 2 1 Z " fill="#020204" transform="translate(748,813)"/>
<path d="M0 0 C7.92 0 15.84 0 24 0 C24.33 8.25 24.66 16.5 25 25 C16.75 25 8.5 25 0 25 C0 16.75 0 8.5 0 0 Z M1 1 C1.33 8.26 1.66 15.52 2 23 C8.93 23 15.86 23 23 23 C23 15.74 23 8.48 23 1 C15.74 1 8.48 1 1 1 Z " fill="#030405" transform="translate(484,813)"/>
<path d="M0 0 C13.86 0 27.72 0 42 0 C42 14.52 42 29.04 42 44 C41.01 43.505 41.01 43.505 40 43 C39.67 29.47 39.34 15.94 39 2 C19.695 1.505 19.695 1.505 0 1 C0 0.67 0 0.34 0 0 Z " fill="#291C20" transform="translate(428,255)"/>
<path d="M0 0 C0.66 0 1.32 0 2 0 C2 13.86 2 27.72 2 42 C-1.63 42 -5.26 42 -9 42 C-8.67 41.01 -8.34 40.02 -8 39 C-7.21625 38.9175 -6.4325 38.835 -5.625 38.75 C-2.92636286 38.28257375 -2.92636286 38.28257375 -1.84765625 36.30078125 C-0.83333665 33.54762805 -0.76866541 31.36644741 -0.8125 28.4375 C-0.81894531 27.48746094 -0.82539063 26.53742188 -0.83203125 25.55859375 C-0.89938566 22.8795058 -0.89938566 22.8795058 -2 20 C-1.34 20 -0.68 20 0 20 C0.24428343 14.2025577 0.24428343 14.2025577 -2 9 C-1.34 9 -0.68 9 0 9 C0 6.03 0 3.06 0 0 Z " fill="#D66204" transform="translate(359,377)"/>
<path d="M0 0 C0.33 0 0.66 0 1 0 C1.33 1.98 1.66 3.96 2 6 C2.33 6 2.66 6 3 6 C3 19.53 3 33.06 3 47 C-0.30351899 48.101173 -2.51387172 48.03109831 -5.98046875 47.87890625 C-7.14384766 47.83056641 -8.30722656 47.78222656 -9.50585938 47.73242188 C-11.32827148 47.64831055 -11.32827148 47.64831055 -13.1875 47.5625 C-14.41404297 47.51029297 -15.64058594 47.45808594 -16.90429688 47.40429688 C-19.93645018 47.27451599 -22.96828294 47.13954569 -26 47 C-26 46.67 -26 46.34 -26 46 C-17.42 46 -8.84 46 0 46 C0 30.82 0 15.64 0 0 Z " fill="#212124" transform="translate(709,859)"/>
<path d="M0 0 C0.66 0.66 1.32 1.32 2 2 C1.625 4.125 1.625 4.125 1 6 C3.31 6.33 5.62 6.66 8 7 C7.67 8.32 7.34 9.64 7 11 C5.68 11 4.36 11 3 11 C3 10.34 3 9.68 3 9 C2.34 9 1.68 9 1 9 C1.16371094 9.91910156 1.32742188 10.83820313 1.49609375 11.78515625 C2.23937095 16.98809668 2.10685707 22.19312905 2.0625 27.4375 C2.05798828 28.45521484 2.05347656 29.47292969 2.04882812 30.52148438 C2.03712437 33.01438509 2.02072848 35.50716074 2 38 C2.66 38 3.32 38 4 38 C3.67 39.32 3.34 40.64 3 42 C2.34 42 1.68 42 1 42 C1.185625 43.27875 1.37125 44.5575 1.5625 45.875 C2.125 49.75 2.125 49.75 1 52 C1.99 52.33 2.98 52.66 4 53 C3.67 54.32 3.34 55.64 3 57 C2.34 57 1.68 57 1 57 C1 58.65 1 60.3 1 62 C0.67 62 0.34 62 0 62 C0 41.54 0 21.08 0 0 Z " fill="#D05D04" transform="translate(295,329)"/>
<path d="M0 0 C0.33 0 0.66 0 1 0 C1.01030746 0.97274872 1.02061493 1.94549744 1.03123474 2.94772339 C1.12885495 12.10060572 1.23157809 21.25341834 1.33933926 30.40618706 C1.39457941 35.11207585 1.44800116 39.81797085 1.49731445 44.52392578 C1.54494188 49.06268969 1.5972841 53.60137667 1.65294075 58.14004898 C1.67337166 59.87443255 1.69208351 61.60883722 1.70907402 63.3432579 C1.73310176 65.76651412 1.76315846 68.18962428 1.79467773 70.61279297 C1.8004332 71.33496002 1.80618866 72.05712708 1.81211853 72.80117798 C1.81623374 76.52545558 1.81623374 76.52545558 3 80 C2.66015625 81.9453125 2.66015625 81.9453125 2.0625 84.125 C1.77052734 85.21167969 1.77052734 85.21167969 1.47265625 86.3203125 C1.31667969 86.87460937 1.16070312 87.42890625 1 88 C0.67 88 0.34 88 0 88 C0 58.96 0 29.92 0 0 Z " fill="#E81926" transform="translate(298,440)"/>
<path d="M0 0 C0.33 0 0.66 0 1 0 C0.45089248 9.82713114 -1.18142226 19.3466691 -3 29 C-3.33 29 -3.66 29 -4 29 C-4.93854006 21.96094956 -5.10808032 15.09727428 -5 8 C-4.01 7.67 -3.02 7.34 -2 7 C-0.77030122 3.48809191 -0.77030122 3.48809191 0 0 Z " fill="#100F11" transform="translate(106,827)"/>
<path d="M0 0 C0.99 0.33 1.98 0.66 3 1 C2.814375 1.5775 2.62875 2.155 2.4375 2.75 C1.95392021 5.23698179 2.37699581 6.58585878 3 9 C2.67 9.99 2.34 10.98 2 12 C1.93259135 13.56118428 1.91485544 15.1250252 1.9375 16.6875 C1.94652344 17.49574219 1.95554687 18.30398438 1.96484375 19.13671875 C1.97644531 19.75160156 1.98804688 20.36648438 2 21 C4.76276177 20.47731534 7.3260876 19.89130413 10 19 C10 20.65 10 22.3 10 24 C6.7 24 3.4 24 0 24 C0 16.08 0 8.16 0 0 Z " fill="#CF5D04" transform="translate(295,395)"/>
<path d="M0 0 C9.24 0 18.48 0 28 0 C28 0.33 28 0.66 28 1 C21.59420987 2.02492642 15.45846858 1.97814554 8.9765625 1.7421875 C7.50316406 1.86980469 7.50316406 1.86980469 6 2 C4.44402274 4.33396589 3.07918104 6.42656829 2 9 C2.33 9.66 2.66 10.32 3 11 C2.67 11.66 2.34 12.32 2 13 C1.34 13 0.68 13 0 13 C0 8.71 0 4.42 0 0 Z " fill="#EF8003" transform="translate(331,218)"/>
<path d="M0 0 C2.97 0.495 2.97 0.495 6 1 C6 1.66 6 2.32 6 3 C8.64680904 2.88660796 11.29177518 2.75987127 13.9375 2.625 C14.69224609 2.5940625 15.44699219 2.563125 16.22460938 2.53125 C18.15507395 2.4273685 20.07942081 2.22104386 22 2 C22.33 1.34 22.66 0.68 23 0 C23.66 1.32 24.32 2.64 25 4 C12.79 4 0.58 4 -12 4 C-12 3.67 -12 3.34 -12 3 C-11.21753906 2.95101563 -10.43507813 2.90203125 -9.62890625 2.8515625 C-8.61699219 2.77679688 -7.60507812 2.70203125 -6.5625 2.625 C-5.55316406 2.55539062 -4.54382813 2.48578125 -3.50390625 2.4140625 C-2.26447266 2.20910156 -2.26447266 2.20910156 -1 2 C-0.67 1.34 -0.34 0.68 0 0 Z " fill="#D76F02" transform="translate(324,416)"/>
<path d="M0 0 C0 4.29 0 8.58 0 13 C-0.99 13.495 -0.99 13.495 -2 14 C-2 9.71 -2 5.42 -2 1 C-9.92 1 -17.84 1 -26 1 C-26 0.67 -26 0.34 -26 0 C-22.04204914 -0.19625099 -18.08363065 -0.38051982 -14.125 -0.5625 C-12.43310547 -0.64661133 -12.43310547 -0.64661133 -10.70703125 -0.73242188 C-9.09248047 -0.80493164 -9.09248047 -0.80493164 -7.4453125 -0.87890625 C-5.95281982 -0.94960327 -5.95281982 -0.94960327 -4.43017578 -1.02172852 C-2 -1 -2 -1 0 0 Z " fill="#D4D1C9" transform="translate(510,812)"/>
<path d="M0 0 C0.66 0 1.32 0 2 0 C4.29275811 7.86088496 5.07471986 15.88903365 6 24 C5.01 24 4.02 24 3 24 C2.92652344 22.90945313 2.92652344 22.90945313 2.8515625 21.796875 C2.30459214 14.4410667 1.32489736 7.25477776 0 0 Z " fill="#E6E3DF" transform="translate(146,830)"/>
<path d="M0 0 C0.33 0 0.66 0 1 0 C1 7.26 1 14.52 1 22 C0.34 22.33 -0.32 22.66 -1 23 C-1.8098159 20.19968008 -2.0886435 17.86671067 -1.9140625 14.9609375 C-1.87023437 14.21585937 -1.82640625 13.47078125 -1.78125 12.703125 C-1.7296875 11.93484375 -1.678125 11.1665625 -1.625 10.375 C-1.58117187 9.59898437 -1.53734375 8.82296875 -1.4921875 8.0234375 C-1.13225446 2.26450893 -1.13225446 2.26450893 0 0 Z " fill="#D56003" transform="translate(330,338)"/>
<path d="M0 0 C0.33 0 0.66 0 1 0 C1 1.65 1 3.3 1 5 C0.34 5 -0.32 5 -1 5 C-0.67 7.31 -0.34 9.62 0 12 C-0.66 12 -1.32 12 -2 12 C-1.67 14.31 -1.34 16.62 -1 19 C-1.99 18.67 -2.98 18.34 -4 18 C-3.71880143 15.37348569 -3.42556162 12.74930665 -3.125 10.125 C-3.04636719 9.37863281 -2.96773437 8.63226562 -2.88671875 7.86328125 C-2.2265625 2.2265625 -2.2265625 2.2265625 0 0 Z " fill="#212224" transform="translate(175,882)"/>
<path d="M0 0 C0.66 0 1.32 0 2 0 C2 5.28 2 10.56 2 16 C1.01 16 0.02 16 -1 16 C-0.814375 15.484375 -0.62875 14.96875 -0.4375 14.4375 C0.16168888 11.83860438 0.16168888 11.83860438 -0.5 8.5625 C-0.96284674 5.26471697 -0.86436663 3.16934429 0 0 Z " fill="#202123" transform="translate(127,833)"/>
<path d="M0 0 C0.99 0.495 0.99 0.495 2 1 C2.625 3.5625 2.625 3.5625 3 6 C4.98 4.35 6.96 2.7 9 1 C6.99892742 5.6489565 3.8751729 7.84245171 0 11 C0 7.37 0 3.74 0 0 Z " fill="#040407" transform="translate(271,789)"/>
<path d="M0 0 C0.66 0 1.32 0 2 0 C2.33 1.65 2.66 3.3 3 5 C4.98 3.35 6.96 1.7 9 0 C6.99892742 4.6489565 3.8751729 6.84245171 0 10 C0 6.7 0 3.4 0 0 Z " fill="#040407" transform="translate(837,790)"/>
<path d="M0 0 C0.99 0.33 1.98 0.66 3 1 C3.33 4.96 3.66 8.92 4 13 C3.01 13.33 2.02 13.66 1 14 C0.04738513 9.23692563 -0.08333357 4.8333472 0 0 Z " fill="#242528" transform="translate(63,766)"/>
<path d="M0 0 C0.08980046 3.23281653 -0.22053142 5.88212567 -1 9 C-1.03786901 10.66623639 -1.04627845 12.33397597 -1 14 C-2.32 13.67 -3.64 13.34 -5 13 C-4.719172 11.01926635 -4.42503386 9.04041552 -4.125 7.0625 C-3.96257812 5.96035156 -3.80015625 4.85820313 -3.6328125 3.72265625 C-3.42398438 2.82417969 -3.21515625 1.92570313 -3 1 C-1 0 -1 0 0 0 Z " fill="#E0DBD4" transform="translate(157,844)"/>
<path d="M0 0 C0 0.99 0 1.98 0 3 C-2.1875 5.04296875 -2.1875 5.04296875 -5 7.1875 C-5.928125 7.90292969 -6.85625 8.61835937 -7.8125 9.35546875 C-8.8953125 10.16951172 -8.8953125 10.16951172 -10 11 C-10.66 10.67 -11.32 10.34 -12 10 C-10.92319498 8.86874978 -9.83824365 7.74525081 -8.75 6.625 C-8.14671875 5.99851562 -7.5434375 5.37203125 -6.921875 4.7265625 C-5.02421844 3.02175722 -3.30495468 2.05397501 -1 1 C-0.67 0.67 -0.34 0.34 0 0 Z " fill="#212124" transform="translate(797,893)"/>
<path d="M0 0 C0.33 0 0.66 0 1 0 C1 3.63 1 7.26 1 11 C1.66 11 2.32 11 3 11 C4.38938077 12.96147874 5.7260411 14.96166576 7 17 C4.625 16.75 4.625 16.75 2 16 C-0.31491757 12.68403699 -0.2109214 9.70238435 -0.125 5.75 C-0.10695313 4.67234375 -0.08890625 3.5946875 -0.0703125 2.484375 C-0.04710937 1.66453125 -0.02390625 0.8446875 0 0 Z " fill="#1E2023" transform="translate(719,877)"/>
<path d="M0 0 C0.33 0 0.66 0 1 0 C1 1.65 1 3.3 1 5 C1.99 5 2.98 5 4 5 C3.37240135 7.92879371 2.41377341 10.36095629 1 13 C0.34 12.67 -0.32 12.34 -1 12 C-0.67 8.04 -0.34 4.08 0 0 Z " fill="#1F2125" transform="translate(101,826)"/>
<path d="M0 0 C1.87184371 3.74368742 2.23999767 4.8400791 2.125 8.75 C2.10695312 9.54921875 2.08890625 10.3484375 2.0703125 11.171875 C2.04710937 11.77515625 2.02390625 12.3784375 2 13 C1.01 13.33 0.02 13.66 -1 14 C-0.67 9.38 -0.34 4.76 0 0 Z " fill="#E7E3DD" transform="translate(161,781)"/>
<path d="M0 0 C0.33 0 0.66 0 1 0 C0.88544319 1.91731918 0.75793742 3.8338675 0.625 5.75 C0.55539063 6.81734375 0.48578125 7.8846875 0.4140625 8.984375 C0.0271777 11.80206432 -0.55686166 13.5830366 -2 16 C-2.2226746 14.56465159 -2.42761906 13.12654475 -2.625 11.6875 C-2.74101563 10.88699219 -2.85703125 10.08648438 -2.9765625 9.26171875 C-3 7 -3 7 -1 4 C-0.36707617 1.88719655 -0.36707617 1.88719655 0 0 Z " fill="#0A0A0B" transform="translate(106,827)"/>
<path d="M0 0 C0.33 3.96 0.66 7.92 1 12 C0.01 11.67 -0.98 11.34 -2 11 C-2 9.35 -2 7.7 -2 6 C-2.33 6 -2.66 6 -3 6 C-3 4.35 -3 2.7 -3 1 C-1 0 -1 0 0 0 Z " fill="#272728" transform="translate(73,817)"/>
<path d="M0 0 C0.99 0.33 1.98 0.66 3 1 C3.05447047 2.41623216 3.09300508 3.83308191 3.125 5.25 C3.14820313 6.03890625 3.17140625 6.8278125 3.1953125 7.640625 C3 10 3 10 1 14 C0.67 9.38 0.34 4.76 0 0 Z " fill="#080809" transform="translate(151,843)"/>
<path d="M0 0 C0.66 0.66 1.32 1.32 2 2 C1.9765625 4.6015625 1.9765625 4.6015625 1.625 7.625 C1.51414063 8.62789062 1.40328125 9.63078125 1.2890625 10.6640625 C1.19367188 11.43492187 1.09828125 12.20578125 1 13 C-1.39964525 8.77928009 -1.23553231 5.78915699 -1 1 C-0.67 0.67 -0.34 0.34 0 0 Z " fill="#EBE7DF" transform="translate(189,761)"/>
<path d="M0 0 C0.99 0 1.98 0 3 0 C2.67 3.96 2.34 7.92 2 12 C1.67 12 1.34 12 1 12 C0.67 8.04 0.34 4.08 0 0 Z " fill="#E8E4DE" transform="translate(180,817)"/>
<path d="M0 0 C1.98 0 3.96 0 6 0 C6 0.99 6 1.98 6 3 C3.69 3.33 1.38 3.66 -1 4 C-0.67 2.68 -0.34 1.36 0 0 Z " fill="#BD131E" transform="translate(458,638)"/>
<path d="M0 0 C0 1.98 0 3.96 0 6 C-1.32 5.34 -2.64 4.68 -4 4 C-4 3.01 -4 2.02 -4 1 C-2 0 -2 0 0 0 Z " fill="#BD131F" transform="translate(427,600)"/>
<path d="M0 0 C1.32 0 2.64 0 4 0 C4 0.99 4 1.98 4 3 C2.35 3.33 0.7 3.66 -1 4 C-1 1 -1 1 0 0 Z " fill="#D56005" transform="translate(346,377)"/>
</svg>
